<svg width="474" height="474" viewBox="0 0 474 474" fill="none" xmlns="http://www.w3.org/2000/svg">
  <path fill-rule="evenodd" clip-rule="evenodd"
    d="M82 405V103.002C94.0266 126.813 158.844 145 237 145C315.156 145 379.973 126.813 392 103.002V405C392 432.614 322.604 455 237 455C151.396 455 82 432.614 82 405Z"
    fill="url(#paint0_linear_103_70)" />
  <path fill-rule="evenodd" clip-rule="evenodd"
    d="M237 213.5C185.732 248.5 108 246 106 213V392.037V392.544H106.014C107.06 411.068 165.304 426 237 426C308.696 426 366.94 411.068 367.986 392.544H368V392.061C368 392.053 368 392.045 368 392.037C368 392.029 368 392.021 368 392.014V206C335.458 165.93 274 188.241 237 213.5Z"
    fill="url(#paint1_linear_103_70)" />
  <path fill-rule="evenodd" clip-rule="evenodd"
    d="M237 213.5C185.732 248.5 108 246 106 213V392.037V392.544H106.014C107.06 411.068 165.304 426 237 426C308.696 426 366.94 411.068 367.986 392.544H368V392.061C368 392.053 368 392.045 368 392.037C368 392.029 368 392.021 368 392.014V206C335.458 165.93 274 188.241 237 213.5Z"
    fill="url(#paint2_linear_103_70)" fill-opacity="0.2" />
  <ellipse cx="237" cy="392.037" rx="131" ry="33.9631" fill="url(#paint3_radial_103_70)" fill-opacity="0.1" />
  <path
    d="M237 213.5C237 213.5 204.5 238.478 158 239C128.002 239.337 105.5 230.5 106 211C106 192.499 134.507 185 153.5 185.5C191.5 186.5 237 213.5 237 213.5Z"
    fill="url(#paint4_linear_103_70)" />
  <path
    d="M237 213.5C237 213.5 269.5 233.478 316 234C345.998 234.337 368.5 225.5 368 206C368 206 353 184 320 184C277.5 184 237 213.5 237 213.5Z"
    fill="url(#paint5_linear_103_70)" />
  <path
    d="M224.366 381.399C224.142 380.655 217.96 360.083 217.736 359.339C206.598 358.853 195.48 357.941 184.414 356.602C182.193 363.596 179.962 370.573 177.72 377.523C170.787 376.564 163.878 375.436 157 374.137C167.826 345.727 178.52 316.382 189.087 286.982C196.981 287.823 204.897 288.455 212.823 288.877C223.756 320.251 234.433 350.908 245.358 381.491C238.361 381.63 231.361 381.599 224.366 381.399V381.399ZM213.113 342.812C212.429 340.575 207.162 323.329 206.478 321.092C206.061 319.642 205.496 317.785 204.785 315.519C204.115 313.214 203.424 310.886 202.711 308.533C202.041 306.142 201.494 304.072 201.074 302.325C200.661 304.004 200.081 306.089 199.336 308.574C198.631 311.022 197.948 313.345 197.284 315.542C196.621 317.735 196.142 319.306 195.854 320.236C193.675 327.134 191.492 334.019 189.304 340.879C197.221 341.739 205.161 342.384 213.113 342.812ZM316.437 374.165C294.029 378.38 271.289 380.798 248.501 381.417C248.495 377.216 248.49 373.015 248.486 368.814C263.087 347.481 277.759 325.223 292.333 302.489C278.176 304.263 263.934 305.355 249.673 305.764C249.678 300.413 249.684 295.062 249.691 289.711C271.672 289.086 293.607 286.851 315.26 283C315.23 287.172 315.205 291.344 315.184 295.515C300.703 318.996 286.118 342.017 271.612 364.127C286.611 362.924 301.548 360.942 316.343 358.182C316.367 363.511 316.399 368.838 316.437 374.165Z"
    fill="white" fill-opacity="0.9" />
  <path d="M106 145C122 190.5 361 186.5 368 145V206C337 167.5 274.697 187 237 213.5C186.5 249 105 247 106 211V145Z"
    fill="url(#paint6_linear_103_70)" />
  <path fill-rule="evenodd" clip-rule="evenodd"
    d="M368 144.963V146H367.94C365.826 164.278 308.011 178.926 237 178.926C165.989 178.926 108.174 164.278 106.06 146H106V144.963V116H168.547C188.468 112.829 211.91 111 237 111C262.09 111 285.532 112.829 305.453 116H368V144.963Z"
    fill="url(#paint7_linear_103_70)" />
  <path fill-rule="evenodd" clip-rule="evenodd"
    d="M237 153C322.604 153 392 130.614 392 103V70H353.449C325.043 59.5776 283.402 53 237 53C190.598 53 148.957 59.5776 120.551 70H82V103C82 130.614 151.396 153 237 153Z"
    fill="url(#paint8_linear_103_70)" />
  <ellipse cx="237" cy="70" rx="155" ry="50" fill="#212121" />
  <defs>
    <linearGradient id="paint0_linear_103_70" x1="82" y1="289" x2="392" y2="289" gradientUnits="userSpaceOnUse">
      <stop stop-color="#A3B5BD" stop-opacity="0.9" />
      <stop offset="0.059645" stop-color="#C3D7E0" stop-opacity="0.9" />
      <stop offset="0.179573" stop-color="#C3D7E0" stop-opacity="0.9" />
      <stop offset="1" stop-color="#EDF5F9" stop-opacity="0.9" />
    </linearGradient>
    <linearGradient id="paint1_linear_103_70" x1="106" y1="308.929" x2="367.004" y2="308.929"
      gradientUnits="userSpaceOnUse">
      <stop offset="0.0797683" stop-color="#016FBA" />
      <stop offset="0.117981" stop-color="#017ACC" />
      <stop offset="0.911119" stop-color="#017ACC" />
      <stop offset="1" stop-color="#016FBA" />
    </linearGradient>
    <linearGradient id="paint2_linear_103_70" x1="237" y1="184" x2="237" y2="275" gradientUnits="userSpaceOnUse">
      <stop stop-color="#003355" />
      <stop offset="1" stop-opacity="0" />
    </linearGradient>
    <radialGradient id="paint3_radial_103_70" cx="0" cy="0" r="1" gradientUnits="userSpaceOnUse"
      gradientTransform="translate(219 394.5) rotate(90) scale(31.5 113)">
      <stop offset="0.631526" stop-color="#016FBA" />
      <stop offset="0.885368" stop-opacity="0.4" />
      <stop offset="1" stop-opacity="0.5" />
    </radialGradient>
    <linearGradient id="paint4_linear_103_70" x1="106" y1="207.244" x2="368" y2="207.244"
      gradientUnits="userSpaceOnUse">
      <stop offset="0.0207013" stop-color="#016FBA" />
      <stop offset="0.123105" stop-color="#017ACC" />
      <stop offset="1" stop-color="#016FBA" />
    </linearGradient>
    <linearGradient id="paint5_linear_103_70" x1="302.504" y1="184" x2="302.504" y2="234.009"
      gradientUnits="userSpaceOnUse">
      <stop stop-color="white" stop-opacity="0.11" />
      <stop offset="1" stop-color="white" stop-opacity="0" />
    </linearGradient>
    <linearGradient id="paint6_linear_103_70" x1="106" y1="192" x2="368" y2="192" gradientUnits="userSpaceOnUse">
      <stop offset="0.0802511" stop-opacity="0.05" />
      <stop offset="0.114554" stop-opacity="0" />
      <stop offset="0.900788" stop-opacity="0" />
      <stop offset="0.917013" stop-opacity="0.05" />
    </linearGradient>
    <linearGradient id="paint7_linear_103_70" x1="106" y1="229.548" x2="367.004" y2="229.548"
      gradientUnits="userSpaceOnUse">
      <stop offset="0.0797683" stop-color="#212121" />
      <stop offset="0.119244" stop-color="#343434" />
      <stop offset="0.911119" stop-color="#343434" />
      <stop offset="1" stop-color="#212121" />
    </linearGradient>
    <linearGradient id="paint8_linear_103_70" x1="82" y1="103" x2="392" y2="103" gradientUnits="userSpaceOnUse">
      <stop offset="0.0782724" stop-color="#212121" />
      <stop offset="0.177817" stop-color="#424242" />
      <stop offset="0.909626" stop-color="#424242" />
      <stop offset="1" stop-color="#212121" />
    </linearGradient>
  </defs>
</svg>
